<svg xmlns="http://www.w3.org/2000/svg" width="36" height="36" viewBox="0 0 120 120">
  <g id="Group_10" data-name="Group 10" transform="translate(-867 -676)">
    <g id="Ellipse_37" data-name="Ellipse 37" transform="translate(867 676)" fill="#fff" stroke="#fff" stroke-width="1">
      <circle cx="60" cy="60" r="60" stroke="none"/>
      <circle cx="60" cy="60" r="59.5" fill="none"/>
    </g>
    <g id="Union_39" data-name="Union 39" transform="matrix(0.94, 0.342, -0.342, 0.94, 3010.245, 1496.054)" fill="#fff" stroke-linecap="round" stroke-linejoin="round">
      <path d="M -2226.264892578125 33.22340774536133 L -2226.264892578125 33.22340774536133 C -2229.860595703125 33.22356796264648 -2233.247314453125 32.22256851196289 -2235.801513671875 30.40481948852539 C -2238.325439453125 28.60857772827148 -2239.790283203125 26.17976951599121 -2239.92578125 23.56580924987793 C -2240.221435546875 17.84087944030762 -2234.109619140625 12.84640884399414 -2226.302001953125 12.43239879608154 C -2225.957763671875 12.41414833068848 -2225.609619140625 12.40489864349365 -2225.26708984375 12.40489864349365 C -2224.6298828125 12.40489864349365 -2223.9892578125 12.43685913085938 -2223.36328125 12.49987888336182 L -2222.813232421875 12.55526828765869 L -2222.813232421875 12.00239849090576 L -2222.813232421875 -33.13350296020508 C -2222.813232421875 -34.11203002929688 -2222.22998046875 -34.98896026611328 -2221.327392578125 -35.36759185791016 L -2221.290771484375 -35.38290023803711 L -2221.25732421875 -35.40377044677734 C -2220.8642578125 -35.64754104614258 -2220.41455078125 -35.77639007568359 -2219.95703125 -35.77639007568359 C -2219.72607421875 -35.77639007568359 -2219.494873046875 -35.74335098266602 -2219.27001953125 -35.67818069458008 L -2218.251953125 -35.38265991210938 L -2218.232666015625 -35.37705993652344 L -2218.212890625 -35.37302017211914 C -2217.749755859375 -35.27806091308594 -2217.29052734375 -35.14477157592773 -2216.84814453125 -34.97686004638672 L -2216.829345703125 -34.96973037719727 L -2216.81005859375 -34.96414184570312 L -2197.744140625 -29.43042182922363 C -2196.420654296875 -29.04595184326172 -2195.65283203125 -27.64128112792969 -2196.032958984375 -26.29920196533203 L -2197.889404296875 -19.74549102783203 C -2198.195068359375 -18.66703224182129 -2199.1796875 -17.91378211975098 -2200.2841796875 -17.9136905670166 C -2200.515380859375 -17.91367149353027 -2200.74658203125 -17.94680213928223 -2200.9716796875 -18.01215171813965 L -2210.451416015625 -20.76343154907227 L -2211.0908203125 -20.94898223876953 L -2211.0908203125 -20.28324127197266 L -2211.0908203125 20.88809776306152 C -2211.0908203125 22.16408920288086 -2211.354248046875 23.39613914489746 -2211.8740234375 24.54999923706055 L -2211.888916015625 24.58296775817871 L -2211.89892578125 24.61772918701172 C -2212.53662109375 26.84478950500488 -2214.18212890625 28.92253875732422 -2216.53271484375 30.46823883056641 C -2218.9853515625 32.08105850219727 -2221.9921875 33.02423858642578 -2225.227783203125 33.19580841064453 C -2225.57275390625 33.21411895751953 -2225.921630859375 33.2234001159668 -2226.264892578125 33.22340774536133 Z" stroke="none"/>
      <path d="M -2226.264892578125 32.72340774536133 C -2225.930419921875 32.7234001159668 -2225.59033203125 32.71434783935547 -2225.25439453125 32.69651031494141 C -2222.10693359375 32.52962875366211 -2219.18603515625 31.61463928222656 -2216.807373046875 30.05046844482422 C -2214.556884765625 28.57046890258789 -2212.984375 26.59220886230469 -2212.379638671875 24.4801082611084 C -2212.366455078125 24.43381881713867 -2212.349853515625 24.38854789733887 -2212.330078125 24.34464836120605 C -2211.839599609375 23.25576782226562 -2211.5908203125 22.09281921386719 -2211.5908203125 20.88809776306152 L -2211.5908203125 -20.28324127197266 C -2211.5908203125 -20.5977611541748 -2211.44287109375 -20.89396095275879 -2211.19140625 -21.08284187316895 C -2211.01611328125 -21.21443748474121 -2210.804931640625 -21.28325080871582 -2210.5908203125 -21.28325080871582 C -2210.49755859375 -21.28325080871582 -2210.40380859375 -21.27020072937012 -2210.31201171875 -21.24361038208008 L -2200.83203125 -18.49231147766113 C -2200.652587890625 -18.44012069702148 -2200.46826171875 -18.41367149353027 -2200.2841796875 -18.4136905670166 C -2199.40234375 -18.41376113891602 -2198.615478515625 -19.01744079589844 -2198.37060546875 -19.88177108764648 L -2196.513916015625 -26.43540191650391 C -2196.20849609375 -27.51401138305664 -2196.822998046875 -28.64219093322754 -2197.883544921875 -28.95023155212402 L -2216.949462890625 -34.48395156860352 C -2216.97509765625 -34.49141311645508 -2217.00048828125 -34.49990081787109 -2217.025634765625 -34.50940322875977 C -2217.44287109375 -34.66784286499023 -2217.876220703125 -34.79360961914062 -2218.3134765625 -34.88321304321289 C -2218.339599609375 -34.88858032226562 -2218.365478515625 -34.89501190185547 -2218.391357421875 -34.90246963500977 L -2219.409423828125 -35.19795227050781 C -2219.5888671875 -35.25 -2219.773193359375 -35.27639007568359 -2219.95703125 -35.27639007568359 C -2220.321533203125 -35.27639007568359 -2220.679931640625 -35.17351150512695 -2220.99365234375 -34.9788703918457 C -2221.038330078125 -34.95109176635742 -2221.08544921875 -34.92690277099609 -2221.134033203125 -34.90651321411133 C -2221.850341796875 -34.60601043701172 -2222.313232421875 -33.91006088256836 -2222.313232421875 -33.13350296020508 L -2222.313232421875 12.00239849090576 C -2222.313232421875 12.28504848480225 -2222.432861328125 12.55448913574219 -2222.642578125 12.74407863616943 C -2222.8271484375 12.91110706329346 -2223.066650390625 13.00240135192871 -2223.313232421875 13.00240135192871 C -2223.346435546875 13.00240135192871 -2223.3798828125 13.00073623657227 -2223.413330078125 12.99736881256104 C -2224.02294921875 12.93600845336914 -2224.646484375 12.90489864349365 -2225.26708984375 12.90489864349365 C -2225.600830078125 12.90489864349365 -2225.940185546875 12.91391849517822 -2226.275390625 12.9316987991333 C -2229.978271484375 13.12803840637207 -2233.3935546875 14.37414836883545 -2235.891845703125 16.44048881530762 C -2238.304443359375 18.43595886230469 -2239.559814453125 20.95732879638672 -2239.42626953125 23.5399284362793 C -2239.159423828125 28.68985939025879 -2233.378173828125 32.72372817993164 -2226.264892578125 32.72340774536133 L -2226.264892578125 32.72340774536133 M -2226.264892578125 33.72340774536133 C -2233.88671875 33.72374725341797 -2240.127197265625 29.33704948425293 -2240.425048828125 23.59169960021973 C -2240.7353515625 17.58239936828613 -2234.424560546875 12.36239910125732 -2226.328369140625 11.93309879302979 C -2225.971923828125 11.91420364379883 -2225.617919921875 11.90490245819092 -2225.26708984375 11.90490245819092 C -2224.604248046875 11.90490245819092 -2223.9521484375 11.938063621521 -2223.313232421875 12.00239849090576 L -2223.313232421875 -33.13350296020508 C -2223.313232421875 -34.34625244140625 -2222.57373046875 -35.38698196411133 -2221.520751953125 -35.82867050170898 C -2221.056640625 -36.11652755737305 -2220.516357421875 -36.27639389038086 -2219.95703125 -36.27639389038086 C -2219.68408203125 -36.27639389038086 -2219.406494140625 -36.23830413818359 -2219.130859375 -36.15840148925781 L -2218.112548828125 -35.86284255981445 C -2217.61669921875 -35.76119995117188 -2217.135009765625 -35.62057113647461 -2216.670654296875 -35.44432067871094 L -2197.604736328125 -29.91060066223145 C -2196.015380859375 -29.44890213012695 -2195.096435546875 -27.77130126953125 -2195.5517578125 -26.16300201416016 L -2197.408447265625 -19.60920143127441 C -2197.784912109375 -18.28007698059082 -2198.982666015625 -17.41379547119141 -2200.2841796875 -17.41368865966797 C -2200.557373046875 -17.41366577148438 -2200.835205078125 -17.45185852050781 -2201.111083984375 -17.53200149536133 L -2210.5908203125 -20.28324127197266 L -2210.5908203125 20.88809776306152 C -2210.5908203125 22.26614952087402 -2210.88671875 23.57539939880371 -2211.418212890625 24.75534820556641 C -2212.7900390625 29.54693794250488 -2218.358154296875 33.33224868774414 -2225.201416015625 33.69511032104492 C -2225.558349609375 33.71405792236328 -2225.913330078125 33.7234001159668 -2226.264892578125 33.72340774536133 Z" stroke="#77ff33" fill="#77ff33"/>
    </g>
  </g>
</svg>
