<svg xmlns="http://www.w3.org/2000/svg" width="30" height="30" viewBox="0 0 120 120"><g data-name="Group 3"><g data-name="Ellipse 6" fill="#44ff82" stroke="#44ff82"><circle cx="60" cy="60" r="60" stroke="none"/><circle cx="60" cy="60" r="59.5" fill="none"/></g><g data-name="Union 14" fill="#fff" stroke-linecap="round" stroke-linejoin="round"><path d="M71.485 107.444c-3.66 0-7.112-1.22-9.717-3.437-2.602-2.214-4.112-5.218-4.253-8.461-.305-7.06 5.946-13.214 13.936-13.72a16.348 16.348 0 012.99.082l.559.067V25.694a2.49 2.49 0 011.645-2.34l.056-.02.049-.032a2.161 2.161 0 011.18-.364c.228 0 .457.04.68.117l.796.277.038.013.04.007c.938.166 1.843.48 2.688.933l.035.018.037.013 18.361 6.37c1.386.481 2.183 2.271 1.776 3.991l-1.898 8.005c-.32 1.352-1.328 2.296-2.452 2.296-.229 0-.458-.039-.68-.116l-9.687-3.36L87 41.27V94.147a9.035 9.035 0 01-1.92 5.602l-.025.033-.02.036c-2.348 4.343-7.136 7.252-12.495 7.592-.339.022-.694.033-1.055.034zM50 79.5H21c-1.93 0-3.5-1.57-3.5-3.5v-5c0-1.93 1.57-3.5 3.5-3.5h29c1.93 0 3.5 1.57 3.5 3.5v5c0 1.93-1.57 3.5-3.5 3.5zm13-21H21c-1.93 0-3.5-1.57-3.5-3.5v-5c0-1.93 1.57-3.5 3.5-3.5h42c1.93 0 3.5 1.57 3.5 3.5v5c0 1.93-1.57 3.5-3.5 3.5zm0-21H21c-1.93 0-3.5-1.57-3.5-3.5v-5c0-1.93 1.57-3.5 3.5-3.5h42c1.93 0 3.5 1.57 3.5 3.5v5c0 1.93-1.57 3.5-3.5 3.5z"/><path d="M71.484 106.944c.351 0 .695-.012 1.024-.033 5.189-.329 9.82-3.138 12.087-7.33a1 1 0 01.09-.14 8.539 8.539 0 001.816-5.294V41.973a1 1 0 011.327-.944l9.686 3.36c.17.06.344.09.517.09.89 0 1.7-.787 1.966-1.913l1.897-8.004c.344-1.452-.321-3.01-1.453-3.403l-18.36-6.37a1 1 0 01-.145-.064 8.528 8.528 0 00-2.54-.881 1 1 0 01-.154-.04l-.795-.277a1.58 1.58 0 00-.518-.089c-.31 0-.623.098-.906.283a1 1 0 01-.21.104 1.99 1.99 0 00-1.313 1.87V81.41a1 1 0 01-1.12.993 15.85 15.85 0 00-2.898-.08c-7.72.49-13.761 6.411-13.467 13.2.134 3.102 1.582 5.98 4.077 8.102 2.515 2.14 5.85 3.318 9.392 3.318M50 79c1.654 0 3-1.345 3-3v-5c0-1.654-1.346-3-3-3H21c-1.654 0-3 1.346-3 3v5c0 1.655 1.346 3 3 3h29m13-21c1.654 0 3-1.345 3-3v-5c0-1.654-1.346-3-3-3H21c-1.654 0-3 1.346-3 3v5c0 1.655 1.346 3 3 3h42m0-21c1.654 0 3-1.346 3-3v-5c0-1.654-1.346-3-3-3H21c-1.654 0-3 1.346-3 3v5c0 1.654 1.346 3 3 3h42m8.486 70.944c-7.789 0-14.166-5.358-14.47-12.376-.318-7.34 6.13-13.717 14.403-14.241a17.109 17.109 0 013.081.084V25.694c0-1.295.824-2.397 1.976-2.81.44-.288.94-.446 1.453-.446.28 0 .563.047.845.144l.797.277c1.01.18 1.963.517 2.837.985l18.361 6.37c1.625.563 2.563 2.613 2.098 4.578l-1.897 8.005c-.385 1.624-1.61 2.681-2.939 2.681-.28 0-.563-.046-.845-.144l-9.685-3.36v52.173a9.582 9.582 0 01-2.026 5.909c-2.345 4.336-7.19 7.49-12.904 7.853-.364.024-.727.035-1.085.035zM50 80H21a4 4 0 01-4-4v-5a4 4 0 014-4h29a4 4 0 014 4v5a4 4 0 01-4 4zm13-21H21a4 4 0 01-4-4v-5a4 4 0 014-4h42a4 4 0 014 4v5a4 4 0 01-4 4zm0-21H21a4 4 0 01-4-4v-5a4 4 0 014-4h42a4 4 0 014 4v5a4 4 0 01-4 4z" stroke="#44ff82" fill="#44ff82"/></g></g></svg>