<svg xmlns="http://www.w3.org/2000/svg" width="30" height="30" viewBox="0 0 120 120">
  <g id="Group_3" data-name="Group 3" transform="translate(-403 -437)">
    <g id="Ellipse_6" data-name="Ellipse 6" transform="translate(403 437)" fill="#44ff82" stroke="#44ff82" stroke-width="1">
      <circle cx="60" cy="60" r="60" stroke="none"/>
      <circle cx="60" cy="60" r="59.5" fill="none"/>
    </g>
    <g id="Union_14" data-name="Union 14" transform="translate(455 496.438)" fill="#fff" stroke-linecap="round" stroke-linejoin="round">
      <path d="M 19.48477554321289 48.00640487670898 C 15.82429599761963 48.00610733032227 12.37343502044678 46.78536605834961 9.768130302429199 44.56899261474609 C 7.166152954101562 42.35544967651367 5.65577507019043 39.35059356689453 5.515230655670166 36.10794830322266 C 5.209686279296875 29.04858207702637 11.46120834350586 22.89378356933594 19.45089721679688 22.38790512084961 C 19.79976463317871 22.36580467224121 20.15310859680176 22.35459327697754 20.50113105773926 22.35459327697754 C 21.14974212646484 22.35459327697754 21.80223083496094 22.39340400695801 22.44046401977539 22.46994972229004 L 22.99999809265137 22.53705024719238 L 22.99999809265137 21.9735050201416 L 22.99999809265137 -33.74369430541992 C 22.99999809265137 -34.79048538208008 23.66114234924316 -35.73087310791016 24.64517593383789 -36.083740234375 L 24.70053100585938 -36.10359573364258 L 24.74976348876953 -36.13573837280273 C 25.11462020874023 -36.37398529052734 25.52255249023438 -36.49991607666016 25.92945289611816 -36.49991607666016 C 26.15799713134766 -36.49991607666016 26.38715362548828 -36.46071624755859 26.61057472229004 -36.38339614868164 L 27.40625381469727 -36.10647201538086 L 27.4439640045166 -36.09334945678711 L 27.48327445983887 -36.08638381958008 C 28.4224967956543 -35.91979598999023 29.32719802856445 -35.60587310791016 30.1722526550293 -35.15331649780273 L 30.20707511901855 -35.13467407226562 L 30.24440765380859 -35.1217155456543 L 48.60530853271484 -28.75151824951172 C 49.99131774902344 -28.27083969116211 50.78766250610352 -26.48060607910156 50.38054275512695 -24.76077270507812 L 48.4833869934082 -16.75630569458008 C 48.16312026977539 -15.40403938293457 47.1546516418457 -14.45961761474609 46.03095245361328 -14.45955085754395 C 45.80247497558594 -14.45953941345215 45.57344055175781 -14.49880599975586 45.3502197265625 -14.57626152038574 L 35.66439819335938 -17.9368724822998 L 35.00049591064453 -18.16721725463867 L 35.00049591064453 -17.4644947052002 L 35.00049591064453 34.70940399169922 C 35.00049591064453 36.76042556762695 34.33644104003906 38.69732666015625 33.08010864257812 40.31070327758789 L 33.0545654296875 40.3435173034668 L 33.03478622436523 40.38009262084961 C 30.68666458129883 44.72297286987305 25.8987979888916 47.63213729858398 20.53961944580078 47.97230529785156 C 20.20127296447754 47.99403381347656 19.84648513793945 48.00548934936523 19.48477554321289 48.00640487670898 Z M -1.999802589416504 20.06230545043945 L -30.99960327148438 20.06230545043945 C -32.92977905273438 20.06230545043945 -34.50010299682617 18.49239349365234 -34.50010299682617 16.56270408630371 L -34.50010299682617 11.56230449676514 C -34.50010299682617 9.63261604309082 -32.92977905273438 8.062705039978027 -30.99960327148438 8.062705039978027 L -1.999802589416504 8.062705039978027 C -0.07011371105909348 8.062705039978027 1.499797344207764 9.63261604309082 1.499797344207764 11.56230449676514 L 1.499797344207764 16.56270408630371 C 1.499797344207764 18.49239349365234 -0.07011371105909348 20.06230545043945 -1.999802589416504 20.06230545043945 Z M 10.99979782104492 -0.9373950958251953 L -30.99960327148438 -0.9373950958251953 C -32.92977905273438 -0.9373950958251953 -34.50010299682617 -2.507717370986938 -34.50010299682617 -4.43789529800415 L -34.50010299682617 -9.437395095825195 C -34.50010299682617 -11.36757278442383 -32.92977905273438 -12.93789482116699 -30.99960327148438 -12.93789482116699 L 10.99979782104492 -12.93789482116699 C 12.92997550964355 -12.93789482116699 14.50029754638672 -11.36757278442383 14.50029754638672 -9.437395095825195 L 14.50029754638672 -4.43789529800415 C 14.50029754638672 -2.507717370986938 12.92997550964355 -0.9373950958251953 10.99979782104492 -0.9373950958251953 Z M 10.99979782104492 -21.93799591064453 L -30.99960327148438 -21.93799591064453 C -32.92977905273438 -21.93799591064453 -34.50010299682617 -23.50790596008301 -34.50010299682617 -25.43759536743164 L -34.50010299682617 -30.43799591064453 C -34.50010299682617 -32.36768341064453 -32.92977905273438 -33.93759536743164 -30.99960327148438 -33.93759536743164 L 10.99979782104492 -33.93759536743164 C 12.92997550964355 -33.93759536743164 14.50029754638672 -32.36768341064453 14.50029754638672 -30.43799591064453 L 14.50029754638672 -25.43759536743164 C 14.50029754638672 -23.50790596008301 12.92997550964355 -21.93799591064453 10.99979782104492 -21.93799591064453 Z" stroke="none"/>
      <path d="M 19.48368072509766 47.50640106201172 C 19.83508491516113 47.50552749633789 20.17944526672363 47.49440765380859 20.50795364379883 47.47332000732422 C 25.69663619995117 47.14396667480469 30.32810592651367 44.33488464355469 32.59494018554688 40.14229583740234 C 32.62126922607422 40.09360122680664 32.65158843994141 40.04719161987305 32.68560028076172 40.00350952148438 C 33.87291717529297 38.47876739501953 34.50050735473633 36.64809799194336 34.50050735473633 34.70940399169922 L 34.50050735473633 -17.46450424194336 C 34.50050735473633 -17.7881031036377 34.6570930480957 -18.0916919708252 34.9207649230957 -18.27930450439453 C 35.09232711791992 -18.40137481689453 35.29540252685547 -18.46451187133789 35.50058746337891 -18.46451187133789 C 35.61073303222656 -18.46451187133789 35.72150421142578 -18.44630813598633 35.82829284667969 -18.40925598144531 L 45.51414108276367 -15.04863262176514 C 45.68451690673828 -14.98951530456543 45.85837554931641 -14.95955085754395 46.03091812133789 -14.95956230163574 C 46.92182540893555 -14.95960903167725 47.7302360534668 -15.74580955505371 47.99686050415039 -16.87162208557129 L 49.89400100708008 -24.87594985961914 C 50.23781204223633 -26.32836151123047 49.57265853881836 -27.88682174682617 48.44142532348633 -28.27915000915527 L 30.08053016662598 -34.64934921264648 C 30.03083610534668 -34.66658782958984 29.98257637023926 -34.68772888183594 29.93621253967285 -34.71255111694336 C 29.13778877258301 -35.1401252746582 28.28312873840332 -35.43671417236328 27.39595222473145 -35.59406661987305 C 27.34362411499023 -35.60335159301758 27.29210662841797 -35.61679840087891 27.24190521240234 -35.63426971435547 L 26.44708251953125 -35.91089248657227 C 26.27637672424316 -35.96996307373047 26.10222434997559 -35.99991607666016 25.92945861816406 -35.99991607666016 C 25.61988258361816 -35.99991607666016 25.30648231506348 -35.90211486816406 25.02315330505371 -35.71710205078125 C 24.95771789550781 -35.67437362670898 24.88750648498535 -35.63946914672852 24.81394195556641 -35.61309051513672 C 24.02803611755371 -35.33126831054688 23.5 -34.58002090454102 23.5 -33.74370193481445 L 23.5 21.97349548339844 C 23.5 22.25944900512695 23.37757682800293 22.5317325592041 23.16368293762207 22.72151947021484 C 22.97971343994141 22.88473701477051 22.74325561523438 22.97349739074707 22.50004577636719 22.97349739074707 C 22.46046829223633 22.97349739074707 22.42067718505859 22.97114372253418 22.38094139099121 22.96637916564941 C 21.7623405456543 22.89220237731934 21.1298713684082 22.85459136962891 20.50110626220703 22.85459136962891 C 20.16350555419922 22.85459136962891 19.8208122253418 22.8654613494873 19.48249435424805 22.88689613342285 C 11.76250553131104 23.37569618225098 5.720917701721191 29.29695510864258 6.014764785766602 36.08629608154297 C 6.149223327636719 39.18843841552734 7.597259044647217 42.06574249267578 10.09211730957031 44.18815612792969 C 12.6069507598877 46.32756423950195 15.9420280456543 47.5059700012207 19.48368072509766 47.50640106201172 M -1.999799966812134 19.56229591369629 C -0.3458117544651031 19.56229591369629 0.9998000264167786 18.21668434143066 0.9998000264167786 16.56269645690918 L 0.9998000264167786 11.56229591369629 C 0.9998000264167786 9.908308029174805 -0.3458117544651031 8.56269645690918 -1.999799966812134 8.56269645690918 L -30.99959945678711 8.56269645690918 C -32.65408325195312 8.56269645690918 -34.00009536743164 9.908308029174805 -34.00009536743164 11.56229591369629 L -34.00009536743164 16.56269645690918 C -34.00009536743164 18.21668434143066 -32.65408325195312 19.56229591369629 -30.99959945678711 19.56229591369629 L -1.999799966812134 19.56229591369629 M 10.99979972839355 -1.437397718429565 C 12.65428256988525 -1.437397718429565 14.00030612945557 -2.783421277999878 14.00030612945557 -4.43790340423584 L 14.00030612945557 -9.437397956848145 C 14.00030612945557 -11.09187984466553 12.65428256988525 -12.43790340423584 10.99979972839355 -12.43790340423584 L -30.99959945678711 -12.43790340423584 C -32.65408325195312 -12.43790340423584 -34.00009536743164 -11.09187984466553 -34.00009536743164 -9.437397956848145 L -34.00009536743164 -4.43790340423584 C -34.00009536743164 -2.783421277999878 -32.65408325195312 -1.437397718429565 -30.99959945678711 -1.437397718429565 L 10.99979972839355 -1.437397718429565 M 10.99979972839355 -22.43799781799316 C 12.65428256988525 -22.43799781799316 14.00030612945557 -23.78360939025879 14.00030612945557 -25.43759727478027 L 14.00030612945557 -30.43799781799316 C 14.00030612945557 -32.09198760986328 12.65428256988525 -33.43759918212891 10.99979972839355 -33.43759918212891 L -30.99959945678711 -33.43759918212891 C -32.65408325195312 -33.43759918212891 -34.00009536743164 -32.09198760986328 -34.00009536743164 -30.43799781799316 L -34.00009536743164 -25.43759727478027 C -34.00009536743164 -23.78360939025879 -32.65408325195312 -22.43799781799316 -30.99959945678711 -22.43799781799316 L 10.99979972839355 -22.43799781799316 M 19.48590660095215 48.50640106201172 C 11.69730567932129 48.50640106201172 5.319905757904053 43.14780044555664 5.015706062316895 36.12960052490234 C 4.697999954223633 28.7892017364502 11.14650630950928 22.41269683837891 19.4193058013916 21.88889694213867 C 19.78245162963867 21.86588859558105 20.14324378967285 21.85458946228027 20.50110816955566 21.85458946228027 C 21.17915153503418 21.85458946228027 21.84670639038086 21.89515113830566 22.5 21.97349548339844 L 22.5 -33.74370193481445 C 22.5 -35.03879928588867 23.32439994812012 -36.14130401611328 24.47640037536621 -36.55439758300781 C 24.91685104370117 -36.84200668334961 25.41521835327148 -36.99991989135742 25.92946434020996 -36.99991989135742 C 26.20857048034668 -36.99991989135742 26.4923095703125 -36.95342254638672 26.77410507202148 -36.85590362548828 L 27.57060050964355 -36.57870483398438 C 28.58040046691895 -36.39959716796875 29.53440093994141 -36.06210327148438 30.40830612182617 -35.5941047668457 L 48.76919937133789 -29.22390365600586 C 50.39370727539062 -28.66050338745117 51.33240127563477 -26.61119842529297 50.86710739135742 -24.64559745788574 L 48.96990585327148 -16.6409969329834 C 48.58534240722656 -15.0172233581543 47.36087799072266 -13.95963668823242 46.03097915649414 -13.95955753326416 C 45.75176239013672 -13.95954132080078 45.46803665161133 -14.00614070892334 45.18630599975586 -14.10390377044678 L 35.50050735473633 -17.46450424194336 L 35.50050735473633 34.70940399169922 C 35.50050735473633 36.93690872192383 34.7445068359375 38.98710632324219 33.47460174560547 40.6179084777832 C 31.13010597229004 44.95410919189453 26.285400390625 48.10860061645508 20.5713062286377 48.47130966186523 C 20.20680046081543 48.49470901489258 19.84410667419434 48.50550842285156 19.48590660095215 48.50640106201172 Z M -1.999799966812134 20.56229591369629 L -30.99959945678711 20.56229591369629 C -33.2091064453125 20.56229591369629 -35.00009536743164 18.77129554748535 -35.00009536743164 16.56269645690918 L -35.00009536743164 11.56229591369629 C -35.00009536743164 9.352802276611328 -33.2091064453125 7.56269645690918 -30.99959945678711 7.56269645690918 L -1.999799966812134 7.56269645690918 C 0.2088000178337097 7.56269645690918 1.999799966812134 9.352802276611328 1.999799966812134 11.56229591369629 L 1.999799966812134 16.56269645690918 C 1.999799966812134 18.77129554748535 0.2088000178337097 20.56229591369629 -1.999799966812134 20.56229591369629 Z M 10.99979972839355 -0.4373977482318878 L -30.99959945678711 -0.4373977482318878 C -33.2091064453125 -0.4373977482318878 -35.00009536743164 -2.228397846221924 -35.00009536743164 -4.43790340423584 L -35.00009536743164 -9.437397956848145 C -35.00009536743164 -11.64690399169922 -33.2091064453125 -13.43790340423584 -30.99959945678711 -13.43790340423584 L 10.99979972839355 -13.43790340423584 C 13.20930576324463 -13.43790340423584 15.00030612945557 -11.64690399169922 15.00030612945557 -9.437397956848145 L 15.00030612945557 -4.43790340423584 C 15.00030612945557 -2.228397846221924 13.20930576324463 -0.4373977482318878 10.99979972839355 -0.4373977482318878 Z M 10.99979972839355 -21.43799781799316 L -30.99959945678711 -21.43799781799316 C -33.2091064453125 -21.43799781799316 -35.00009536743164 -23.22810363769531 -35.00009536743164 -25.43759727478027 L -35.00009536743164 -30.43799781799316 C -35.00009536743164 -32.64659881591797 -33.2091064453125 -34.43759918212891 -30.99959945678711 -34.43759918212891 L 10.99979972839355 -34.43759918212891 C 13.20930576324463 -34.43759918212891 15.00030612945557 -32.64659881591797 15.00030612945557 -30.43799781799316 L 15.00030612945557 -25.43759727478027 C 15.00030612945557 -23.22810363769531 13.20930576324463 -21.43799781799316 10.99979972839355 -21.43799781799316 Z" stroke="#44ff82" fill="#44ff82"/>
    </g>
  </g>
</svg>
