<svg xmlns="http://www.w3.org/2000/svg" width="36" height="36" viewBox="0 0 120 120">
  <g id="Group_11" data-name="Group 11" transform="translate(-1027 -676)">
    <g id="Ellipse_38" data-name="Ellipse 38" transform="translate(1027 676)" fill="#77ff33" stroke="#fff" stroke-width="1">
      <circle cx="60" cy="60" r="60" stroke="none"/>
      <circle cx="60" cy="60" r="59.5" fill="none"/>
    </g>
    <g id="Union_40" data-name="Union 40" transform="matrix(0.927, -0.375, 0.375, 0.927, 3123.055, -84.965)" fill="#fff" stroke-linecap="round" stroke-linejoin="round">
      <path d="M -2181.942626953125 33.22387313842773 C -2185.622802734375 33.22391128540039 -2189.089111328125 32.23555755615234 -2191.703125 30.44088554382324 C -2194.28173828125 28.67049789428711 -2195.77783203125 26.27907371520996 -2195.915771484375 23.70713233947754 C -2196.029296875 21.5868034362793 -2195.22314453125 19.50389862060547 -2193.583984375 17.68362808227539 C -2192.3447265625 16.30762672424316 -2190.65625 15.12945079803467 -2188.700927734375 14.27649784088135 C -2186.66845703125 13.3899097442627 -2184.34521484375 12.8574390411377 -2181.982177734375 12.73665046691895 C -2181.6298828125 12.71859169006348 -2181.2734375 12.70945072174072 -2180.92236328125 12.70945072174072 C -2180.2705078125 12.70945072174072 -2179.615478515625 12.74093341827393 -2178.975341796875 12.80303955078125 L -2178.427001953125 12.85623931884766 L -2178.427001953125 12.30537986755371 L -2178.427001953125 -32.09490203857422 C -2178.427001953125 -33.08056259155273 -2177.843994140625 -33.97417449951172 -2176.94189453125 -34.37147903442383 L -2176.9091796875 -34.38589096069336 L -2176.878662109375 -34.4047966003418 C -2176.464599609375 -34.66304397583008 -2175.987548828125 -34.7995491027832 -2175.4990234375 -34.7995491027832 C -2175.260009765625 -34.7995491027832 -2175.02099609375 -34.76651382446289 -2174.788818359375 -34.70137405395508 L -2173.65771484375 -34.3846321105957 L -2173.64306640625 -34.38050079345703 L -2173.6279296875 -34.37727737426758 C -2173.2666015625 -34.29958343505859 -2172.90625 -34.19871520996094 -2172.557373046875 -34.07745361328125 L -2172.54296875 -34.07241821289062 L -2172.528076171875 -34.06827926635742 L -2152.787109375 -28.53992652893066 C -2152.12060546875 -28.35294914245605 -2151.572265625 -27.92279624938965 -2151.242919921875 -27.32872581481934 C -2150.925048828125 -26.75485420227051 -2150.851318359375 -26.09359550476074 -2151.03515625 -25.46677207946777 L -2152.931396484375 -19.00570297241211 C -2153.243896484375 -17.9427375793457 -2154.255615234375 -17.20014953613281 -2155.391357421875 -17.20012474060059 C -2155.6298828125 -17.20012474060059 -2155.86865234375 -17.2330436706543 -2156.1005859375 -17.29799652099609 L -2165.7900390625 -20.01163101196289 L -2166.4248046875 -20.18943214416504 L -2166.4248046875 -19.53016090393066 L -2166.4248046875 20.72880363464355 C -2166.4248046875 21.92267417907715 -2166.6513671875 23.08315658569336 -2167.098388671875 24.17799186706543 L -2167.114013671875 24.21603965759277 L -2167.123046875 24.2561092376709 C -2168.22119140625 29.08518028259277 -2174.0078125 32.8452262878418 -2180.88232421875 33.19665145874023 C -2181.234619140625 33.2147216796875 -2181.59130859375 33.22387313842773 -2181.942626953125 33.22387313842773 Z M -2225.95166015625 32.24737930297852 C -2229.6318359375 32.24740219116211 -2233.09814453125 31.2590160369873 -2235.712158203125 29.46427536010742 C -2238.290771484375 27.69375610351562 -2239.786865234375 25.30205154418945 -2239.9248046875 22.72973251342773 C -2240.038330078125 20.60968589782715 -2239.232177734375 18.52701568603516 -2237.59326171875 16.70687484741211 C -2236.354248046875 15.33096885681152 -2234.665771484375 14.15287399291992 -2232.710693359375 13.29995632171631 C -2230.67822265625 12.41340351104736 -2228.355224609375 11.88094520568848 -2225.9921875 11.76015663146973 C -2225.6396484375 11.74208641052246 -2225.28271484375 11.7329216003418 -2224.931640625 11.7329216003418 C -2224.280029296875 11.7329216003418 -2223.624755859375 11.76443958282471 -2222.984375 11.82660388946533 L -2222.43603515625 11.87982749938965 L -2222.43603515625 11.32894515991211 L -2222.43603515625 -33.07230377197266 C -2222.43603515625 -34.0583381652832 -2221.852783203125 -34.95186614990234 -2220.9501953125 -35.34870147705078 L -2220.91748046875 -35.36309051513672 L -2220.886962890625 -35.38198471069336 C -2220.47314453125 -35.63978576660156 -2219.99609375 -35.77604293823242 -2219.508056640625 -35.77604293823242 C -2219.26904296875 -35.77604293823242 -2219.030029296875 -35.74301910400391 -2218.7978515625 -35.67787933349609 L -2217.66748046875 -35.36131286621094 L -2217.65283203125 -35.35716247558594 L -2217.6376953125 -35.35392379760742 C -2217.275390625 -35.27612686157227 -2216.91455078125 -35.17509078979492 -2216.5654296875 -35.05363082885742 L -2216.55078125 -35.0485725402832 L -2216.535888671875 -35.04441833496094 L -2196.79638671875 -29.51643180847168 C -2196.130126953125 -29.32992553710938 -2195.58203125 -28.90024375915527 -2195.252685546875 -28.3065013885498 C -2194.934326171875 -27.73227882385254 -2194.8603515625 -27.07054901123047 -2195.044189453125 -26.4432201385498 L -2196.94140625 -19.98226737976074 C -2197.25341796875 -18.91912651062012 -2198.264404296875 -18.17665481567383 -2199.400390625 -18.17662048339844 C -2199.638916015625 -18.17662048339844 -2199.877685546875 -18.20954895019531 -2200.109619140625 -18.27449035644531 L -2209.799072265625 -20.98870277404785 L -2210.433837890625 -21.16653823852539 L -2210.433837890625 -20.50723075866699 L -2210.433837890625 19.75140380859375 C -2210.433837890625 20.9450855255127 -2210.660400390625 22.1054859161377 -2211.107421875 23.20038032531738 L -2211.123046875 23.23846244812012 L -2211.132080078125 23.27856826782227 C -2212.229248046875 28.10746192932129 -2218.015869140625 31.86794471740723 -2224.891357421875 32.22015762329102 C -2225.243896484375 32.23820495605469 -2225.6005859375 32.24736785888672 -2225.95166015625 32.24737930297852 L -2225.95166015625 32.24737930297852 Z" stroke="none"/>
      <path d="M -2181.942626953125 32.72387313842773 C -2181.599853515625 32.72387313842773 -2181.251708984375 32.71493530273438 -2180.90771484375 32.69729614257812 C -2177.609375 32.5286979675293 -2174.447998046875 31.54292297363281 -2172.005615234375 29.92158508300781 C -2169.6650390625 28.36789703369141 -2168.104248046875 26.31649780273438 -2167.610595703125 24.14524841308594 C -2167.598388671875 24.09192276000977 -2167.58203125 24.0396728515625 -2167.561279296875 23.98902320861816 C -2167.138916015625 22.95444869995117 -2166.9248046875 21.85754776000977 -2166.9248046875 20.72879791259766 L -2166.9248046875 -19.53016471862793 C -2166.9248046875 -19.84304046630859 -2166.7783203125 -20.13787651062012 -2166.529052734375 -20.32693862915039 C -2166.353271484375 -20.46030044555664 -2166.140625 -20.53017425537109 -2165.9248046875 -20.53017425537109 C -2165.834716796875 -20.53017425537109 -2165.743896484375 -20.51797294616699 -2165.655029296875 -20.49311447143555 L -2155.9658203125 -17.77947616577148 C -2155.777587890625 -17.72682762145996 -2155.58447265625 -17.70012664794922 -2155.391357421875 -17.70012664794922 C -2154.475830078125 -17.70015144348145 -2153.66162109375 -18.29512786865234 -2153.4111328125 -19.14651489257812 L -2151.514892578125 -25.60756492614746 C -2151.368896484375 -26.10515213012695 -2151.427734375 -26.63035202026367 -2151.680419921875 -27.0864143371582 C -2151.9443359375 -27.56266403198242 -2152.38525390625 -27.90791511535645 -2152.922119140625 -28.05845260620117 L -2172.6630859375 -33.5868034362793 C -2172.6826171875 -33.59231567382812 -2172.7021484375 -33.59843826293945 -2172.7216796875 -33.60516357421875 C -2173.05126953125 -33.7197151184082 -2173.3916015625 -33.81502532958984 -2173.733154296875 -33.8884391784668 C -2173.753173828125 -33.89273834228516 -2173.77294921875 -33.89765167236328 -2173.792724609375 -33.90316390991211 L -2174.923828125 -34.21995162963867 C -2175.112060546875 -34.27277755737305 -2175.3056640625 -34.29955291748047 -2175.4990234375 -34.29955291748047 C -2175.893798828125 -34.29955291748047 -2176.279541015625 -34.18922805786133 -2176.6142578125 -33.98051452636719 C -2176.654541015625 -33.95532608032227 -2176.69677734375 -33.93306350708008 -2176.740234375 -33.91389083862305 C -2177.461181640625 -33.59641265869141 -2177.927001953125 -32.88242721557617 -2177.927001953125 -32.09490203857422 L -2177.927001953125 12.3053731918335 C -2177.927001953125 12.5873851776123 -2178.046142578125 12.85629749298096 -2178.2548828125 13.04583549499512 C -2178.439697265625 13.21360015869141 -2178.6796875 13.30537700653076 -2178.927001953125 13.30537700653076 C -2178.958984375 13.30537700653076 -2178.9912109375 13.30382823944092 -2179.023681640625 13.30069828033447 C -2179.6474609375 13.24014759063721 -2180.286376953125 13.20944786071777 -2180.92236328125 13.20944786071777 C -2181.264892578125 13.20944786071777 -2181.61279296875 13.21837329864502 -2181.956787109375 13.23599815368652 C -2186.51806640625 13.46917247772217 -2190.725830078125 15.25691032409668 -2193.21240234375 18.01821136474609 C -2194.7607421875 19.73762321472168 -2195.52294921875 21.6955738067627 -2195.41650390625 23.68036079406738 C -2195.14453125 28.75154876708984 -2189.22607421875 32.72393417358398 -2181.942626953125 32.72387313842773 C -2181.942626953125 32.72387313842773 -2181.942626953125 32.72387313842773 -2181.942626953125 32.72387313842773 M -2225.95166015625 31.74737358093262 C -2225.609130859375 31.74737358093262 -2225.260986328125 31.73843574523926 -2224.9169921875 31.72080993652344 C -2221.6181640625 31.55182266235352 -2218.45654296875 30.56579780578613 -2216.01416015625 28.9443473815918 C -2213.673828125 27.39052200317383 -2212.113037109375 25.33902359008789 -2211.61962890625 23.16776084899902 C -2211.607421875 23.1143856048584 -2211.591064453125 23.06208610534668 -2211.5703125 23.01139831542969 C -2211.14794921875 21.97678565979004 -2210.933837890625 20.87996101379395 -2210.933837890625 19.75139808654785 L -2210.933837890625 -20.50724029541016 C -2210.933837890625 -20.82011413574219 -2210.787353515625 -21.11496543884277 -2210.5380859375 -21.30402755737305 C -2210.3623046875 -21.4373779296875 -2210.149658203125 -21.50724792480469 -2209.933837890625 -21.50724792480469 C -2209.843505859375 -21.50724792480469 -2209.7529296875 -21.49504470825195 -2209.6640625 -21.47017669677734 L -2199.974853515625 -18.75597763061523 C -2199.78662109375 -18.70332717895508 -2199.593505859375 -18.67662620544434 -2199.400390625 -18.67662620544434 C -2198.48486328125 -18.6766529083252 -2197.671142578125 -19.27141380310059 -2197.421142578125 -20.12314033508301 L -2195.52392578125 -26.58392715454102 C -2195.3779296875 -27.08198928833008 -2195.43701171875 -27.60762786865234 -2195.68994140625 -28.06403923034668 C -2195.953857421875 -28.53995132446289 -2196.394775390625 -28.88475227355957 -2196.931396484375 -29.03495216369629 L -2216.6708984375 -34.56293869018555 C -2216.690673828125 -34.56847763061523 -2216.710205078125 -34.57462692260742 -2216.7294921875 -34.58137893676758 C -2217.0595703125 -34.69609069824219 -2217.400390625 -34.79155349731445 -2217.74267578125 -34.86508941650391 C -2217.7626953125 -34.86938858032227 -2217.78271484375 -34.87431335449219 -2217.802490234375 -34.87984085083008 L -2218.932861328125 -35.19645309448242 C -2219.12109375 -35.24926376342773 -2219.314697265625 -35.27603912353516 -2219.508056640625 -35.27603912353516 C -2219.902587890625 -35.27603912353516 -2220.2880859375 -35.16590118408203 -2220.622802734375 -34.95755386352539 C -2220.6630859375 -34.93238830566406 -2220.705322265625 -34.91014099121094 -2220.7490234375 -34.89097595214844 C -2221.469970703125 -34.57394027709961 -2221.93603515625 -33.86006546020508 -2221.93603515625 -33.07230377197266 L -2221.93603515625 11.32893562316895 C -2221.93603515625 11.61096000671387 -2222.05517578125 11.87987327575684 -2222.263916015625 12.06941032409668 C -2222.44873046875 12.23717594146729 -2222.688720703125 12.32894325256348 -2222.93603515625 12.32894325256348 C -2222.968017578125 12.32894325256348 -2223.00048828125 12.327392578125 -2223.03271484375 12.32426071166992 C -2223.656982421875 12.26364803314209 -2224.2958984375 12.23292255401611 -2224.931640625 12.23292255401611 C -2225.274169921875 12.23292255401611 -2225.622314453125 12.24186038970947 -2225.966796875 12.25949764251709 C -2230.52783203125 12.49266052246094 -2234.735107421875 14.28031063079834 -2237.2216796875 17.04146003723145 C -2238.769775390625 18.76073455810547 -2239.531982421875 20.71846008300781 -2239.425537109375 22.70297241210938 C -2239.153564453125 27.77466011047363 -2233.235107421875 31.74743461608887 -2225.95166015625 31.74737358093262 C -2225.95166015625 31.74737358093262 -2225.95166015625 31.74737358093262 -2225.95166015625 31.74737358093262 M -2181.942626953125 33.72387313842773 C -2189.732421875 33.72393417358398 -2196.111328125 29.39837265014648 -2196.4150390625 23.7338981628418 C -2196.732666015625 17.80739784240723 -2190.282470703125 12.66029834747314 -2182.0078125 12.23729801177979 C -2181.643310546875 12.21863174438477 -2181.28125 12.20944309234619 -2180.92236328125 12.20944309234619 C -2180.245361328125 12.20944309234619 -2179.579345703125 12.24207878112793 -2178.927001953125 12.3053731918335 L -2178.927001953125 -32.09490203857422 C -2178.927001953125 -33.31666564941406 -2178.193603515625 -34.36655044555664 -2177.143310546875 -34.82907867431641 C -2176.658935546875 -35.13113403320312 -2176.08935546875 -35.29955673217773 -2175.4990234375 -35.29955673217773 C -2175.2197265625 -35.29955673217773 -2174.935791015625 -35.26186752319336 -2174.65380859375 -35.18280029296875 L -2173.52294921875 -34.86611557006836 C -2173.137451171875 -34.78325271606445 -2172.76025390625 -34.67726516723633 -2172.393310546875 -34.54975128173828 L -2152.65234375 -29.02140235900879 C -2151.02880859375 -28.56600189208984 -2150.090087890625 -26.91180229187012 -2150.555419921875 -25.32600212097168 L -2152.45166015625 -18.86490249633789 C -2152.837158203125 -17.55408096313477 -2154.061279296875 -16.70016098022461 -2155.391357421875 -16.70012855529785 C -2155.670166015625 -16.70012092590332 -2155.953857421875 -16.73769187927246 -2156.2353515625 -16.81650161743164 L -2165.9248046875 -19.53016471862793 L -2165.9248046875 20.72879791259766 C -2165.9248046875 22.01602363586426 -2166.17724609375 23.24448585510254 -2166.635498046875 24.36698532104492 C -2167.7646484375 29.3326358795166 -2173.611328125 33.32562255859375 -2180.856689453125 33.69599914550781 C -2181.22119140625 33.71468734741211 -2181.58349609375 33.72387313842773 -2181.942626953125 33.72387313842773 Z M -2225.95166015625 32.74737167358398 C -2233.741455078125 32.7474365234375 -2240.120361328125 28.42183494567871 -2240.424072265625 22.75649833679199 C -2240.74169921875 16.83089828491211 -2234.292236328125 11.68379783630371 -2226.017822265625 11.26079750061035 C -2225.653076171875 11.24211978912354 -2225.290771484375 11.23292255401611 -2224.931640625 11.23292255401611 C -2224.2548828125 11.23292255401611 -2223.5888671875 11.26557350158691 -2222.93603515625 11.32893562316895 L -2222.93603515625 -33.07230377197266 C -2222.93603515625 -34.29410171508789 -2222.202392578125 -35.34435272216797 -2221.1513671875 -35.80641555786133 C -2220.667236328125 -36.10790634155273 -2220.097900390625 -36.27604293823242 -2219.508056640625 -36.27604293823242 C -2219.228759765625 -36.27604293823242 -2218.94482421875 -36.23836517333984 -2218.662841796875 -36.1593017578125 L -2217.53271484375 -35.84278869628906 C -2217.146240234375 -35.7597770690918 -2216.768798828125 -35.65375137329102 -2216.401123046875 -35.5258903503418 L -2196.66162109375 -29.99790191650391 C -2195.037841796875 -29.54340171813965 -2194.099365234375 -27.88830184936523 -2194.564453125 -26.3025016784668 L -2196.461669921875 -19.84140205383301 C -2196.84619140625 -18.53058052062988 -2198.070556640625 -17.67666053771973 -2199.400390625 -17.67662811279297 C -2199.67919921875 -17.67662239074707 -2199.962890625 -17.71419143676758 -2200.244384765625 -17.79300117492676 L -2209.933837890625 -20.50724029541016 L -2209.933837890625 19.75139808654785 C -2209.933837890625 21.0388355255127 -2210.186279296875 22.26681137084961 -2210.64453125 23.38934707641602 C -2211.77294921875 28.35532379150391 -2217.619873046875 32.34830856323242 -2224.86572265625 32.71949768066406 C -2225.23046875 32.73818588256836 -2225.592529296875 32.74737167358398 -2225.95166015625 32.74737167358398 Z" stroke="#77ff33" fill="#77ff33"/>
    </g>
  </g>
</svg>
