<svg xmlns="http://www.w3.org/2000/svg" width="36" height="36" viewBox="0 0 120 120">
  <g id="Group_12" data-name="Group 12" transform="translate(-1182 -676)">
    <g id="Ellipse_39" data-name="Ellipse 39" transform="translate(1182 676)" fill="#fff" stroke="#fff" stroke-width="1">
      <circle cx="60" cy="60" r="60" stroke="none"/>
      <circle cx="60" cy="60" r="59.5" fill="none"/>
    </g>
    <g id="Union_41" data-name="Union 41" transform="translate(3440.44 737.987)" fill="#fff" stroke-linecap="round" stroke-linejoin="round">
      <path d="M -2181.556884765625 32.49971389770508 C -2185.264404296875 32.49976348876953 -2188.75634765625 31.52830505371094 -2191.389404296875 29.7642936706543 C -2193.9833984375 28.02637481689453 -2195.48828125 25.68036460876465 -2195.626708984375 23.15840339660645 C -2195.73876953125 21.12232398986816 -2194.960205078125 19.11525344848633 -2193.37451171875 17.35408401489258 C -2190.793212890625 14.48674392700195 -2186.391357421875 12.63209438323975 -2181.599365234375 12.39288425445557 C -2181.244873046875 12.37518405914307 -2180.885986328125 12.36620426177979 -2180.532958984375 12.36620426177979 C -2179.8759765625 12.36620426177979 -2179.216064453125 12.39719390869141 -2178.571044921875 12.4583044052124 L -2178.02392578125 12.51015377044678 L -2178.02392578125 11.96053409576416 L -2178.02392578125 -24.52679634094238 L -2178.02392578125 -25.02679634094238 L -2178.52392578125 -25.02679634094238 L -2209.733154296875 -25.02679634094238 L -2210.233154296875 -25.02679634094238 L -2210.233154296875 -24.52679634094238 L -2210.233154296875 17.82990455627441 C -2210.233154296875 18.91520500183105 -2210.3994140625 19.98430442810059 -2210.727294921875 21.00751495361328 L -2210.7509765625 21.08104515075684 L -2210.751220703125 21.15825462341309 C -2210.7607421875 23.72784423828125 -2212.1884765625 26.20989418029785 -2214.77099609375 28.14718437194824 C -2217.410888671875 30.12736511230469 -2220.96875 31.32292366027832 -2224.7890625 31.51362419128418 C -2225.143798828125 31.53133392333984 -2225.502685546875 31.54031372070312 -2225.85595703125 31.54031372070312 C -2229.56298828125 31.54036331176758 -2233.0546875 30.56890487670898 -2235.6875 28.80489349365234 C -2238.281494140625 27.06695365905762 -2239.786376953125 24.72093391418457 -2239.9248046875 22.19899368286133 C -2240.036865234375 20.16281509399414 -2239.258056640625 18.15562438964844 -2237.67236328125 16.39436340332031 C -2235.091064453125 13.52721405029297 -2230.689697265625 11.67268466949463 -2225.8984375 11.43348407745361 C -2225.543212890625 11.41571426391602 -2225.183837890625 11.40670394897461 -2224.830078125 11.40670394897461 C -2224.173583984375 11.40670394897461 -2223.513671875 11.43765449523926 -2222.868896484375 11.49868392944336 L -2222.32177734375 11.5504846572876 L -2222.32177734375 11.00091457366943 L -2222.32177734375 -24.60100555419922 L -2222.32177734375 -24.83674621582031 L -2222.439453125 -24.93376350402832 C -2222.41796875 -28.01417541503906 -2221.208251953125 -30.90718269348145 -2219.02783203125 -33.08785629272461 C -2216.827392578125 -35.28814697265625 -2213.902099609375 -36.49989700317383 -2210.790771484375 -36.49989700317383 L -2177.7021484375 -36.49989700317383 C -2175.136474609375 -36.49989700317383 -2172.703125 -35.68222427368164 -2170.66552734375 -34.1352653503418 C -2168.69287109375 -32.63778686523438 -2167.22314453125 -30.51226615905762 -2166.52685546875 -28.15024566650391 L -2166.52197265625 -28.13308525085449 L -2166.515625 -28.11632537841797 C -2166.13037109375 -27.08705520629883 -2165.93505859375 -26.00290489196777 -2165.93505859375 -24.89399528503418 L -2165.93505859375 20.00070381164551 C -2165.93505859375 21.1455249786377 -2166.142822265625 22.26235389709473 -2166.552490234375 23.32017517089844 L -2166.56884765625 23.36259460449219 L -2166.577392578125 23.40728378295898 C -2167.017578125 25.72043418884277 -2168.63037109375 27.90666389465332 -2171.118896484375 29.56327438354492 C -2173.676025390625 31.2656135559082 -2177.004150390625 32.29898452758789 -2180.489990234375 32.4730224609375 C -2180.8447265625 32.49072265625 -2181.20361328125 32.49970245361328 -2181.556884765625 32.49971389770508 Z" stroke="none"/>
      <path d="M -2181.556884765625 31.99971008300781 C -2181.212158203125 31.99971008300781 -2180.861572265625 31.99094390869141 -2180.514892578125 31.97364234924316 C -2177.11767578125 31.80403137207031 -2173.879150390625 30.80020904541016 -2171.395751953125 29.14706611633301 C -2169.020263671875 27.56552124023438 -2167.4833984375 25.49390983581543 -2167.068603515625 23.3138313293457 C -2167.05712890625 23.2543773651123 -2167.04052734375 23.19606590270996 -2167.018798828125 23.13962173461914 C -2166.63134765625 22.13962173461914 -2166.43505859375 21.08353233337402 -2166.43505859375 20.00069808959961 L -2166.43505859375 -24.89400100708008 C -2166.43505859375 -25.94286727905273 -2166.61962890625 -26.96804618835449 -2166.98388671875 -27.9410572052002 C -2166.9921875 -27.9633903503418 -2166.999755859375 -27.98602294921875 -2167.006591796875 -28.00890159606934 C -2167.6728515625 -30.26930046081543 -2169.07958984375 -32.3035888671875 -2170.9677734375 -33.73702239990234 C -2172.91796875 -35.21741104125977 -2175.24658203125 -35.99990081787109 -2177.7021484375 -35.99990081787109 L -2210.790771484375 -35.99990081787109 C -2213.7685546875 -35.99990081787109 -2216.568359375 -34.84015655517578 -2218.674072265625 -32.73431396484375 C -2220.728759765625 -30.67975234985352 -2221.882568359375 -27.96484375 -2221.937744140625 -25.06821823120117 C -2221.862548828125 -24.92591857910156 -2221.82177734375 -24.76584053039551 -2221.82177734375 -24.60100173950195 L -2221.82177734375 11.00092124938965 C -2221.82177734375 11.28253173828125 -2221.9404296875 11.55108737945557 -2222.14892578125 11.74061012268066 C -2222.333740234375 11.90883827209473 -2222.573974609375 12.00092220306396 -2222.82177734375 12.00092220306396 C -2222.85302734375 12.00092220306396 -2222.884521484375 11.99944686889648 -2222.916015625 11.9964656829834 C -2223.545166015625 11.93690967559814 -2224.18896484375 11.90670967102051 -2224.830078125 11.90670967102051 C -2225.175537109375 11.90670967102051 -2225.526611328125 11.9155101776123 -2225.87353515625 11.93285465240479 C -2230.53466796875 12.16556549072266 -2234.806640625 13.95847606658936 -2237.30078125 16.7288990020752 C -2238.79541015625 18.38911056518555 -2239.5302734375 20.27111053466797 -2239.425537109375 22.17158699035645 C -2239.152587890625 27.14479827880859 -2233.192138671875 31.0403995513916 -2225.85595703125 31.04030990600586 C -2225.510986328125 31.04030990600586 -2225.160400390625 31.03154373168945 -2224.81396484375 31.01424217224121 C -2221.09228515625 30.82845497131348 -2217.632080078125 29.66819953918457 -2215.071044921875 27.7472095489502 C -2212.61669921875 25.90618705749512 -2211.26025390625 23.56552124023438 -2211.251220703125 21.15638732910156 C -2211.250732421875 21.05404281616211 -2211.23486328125 20.95236587524414 -2211.20361328125 20.85490989685059 C -2210.891357421875 19.88108825683594 -2210.733154296875 18.86332130432129 -2210.733154296875 17.82989883422852 L -2210.733154296875 -24.52680206298828 C -2210.733154296875 -25.0790901184082 -2210.285400390625 -25.52680206298828 -2209.733154296875 -25.52680206298828 L -2178.52392578125 -25.52680206298828 C -2177.9716796875 -25.52680206298828 -2177.52392578125 -25.0790901184082 -2177.52392578125 -24.52680206298828 L -2177.52392578125 11.96053218841553 C -2177.52392578125 12.24215412139893 -2177.642578125 12.51072120666504 -2177.85107421875 12.70023155212402 C -2178.035888671875 12.86845874786377 -2178.276123046875 12.96053695678711 -2178.52392578125 12.96053695678711 C -2178.55517578125 12.96053695678711 -2178.586669921875 12.95906066894531 -2178.6181640625 12.95607662200928 C -2179.24755859375 12.89644336700439 -2179.891845703125 12.86620998382568 -2180.532958984375 12.86620998382568 C -2180.8779296875 12.86620998382568 -2181.228271484375 12.87497615814209 -2181.574462890625 12.89225387573242 C -2186.236328125 13.12497615814209 -2190.5087890625 14.91799831390381 -2193.0029296875 17.6886100769043 C -2194.49755859375 19.34870910644531 -2195.232177734375 21.23059844970703 -2195.12744140625 23.1309986114502 C -2194.8544921875 28.10419845581055 -2188.8935546875 31.99979782104492 -2181.556884765625 31.99971008300781 L -2181.556884765625 31.99971008300781 M -2181.556884765625 32.99971008300781 C -2189.399169921875 32.99980926513672 -2195.820556640625 28.75083160400391 -2196.1259765625 23.18579864501953 C -2196.446533203125 17.36549949645996 -2189.953857421875 12.30929851531982 -2181.624267578125 11.89349842071533 C -2181.2578125 11.87520790100098 -2180.893798828125 11.86620616912842 -2180.532958984375 11.86620616912842 C -2179.8515625 11.86620616912842 -2179.1806640625 11.89829635620117 -2178.52392578125 11.96053218841553 L -2178.52392578125 -24.52680206298828 L -2209.733154296875 -24.52680206298828 L -2209.733154296875 17.82989883422852 C -2209.733154296875 18.99115371704102 -2209.914794921875 20.11041069030762 -2210.251220703125 21.16011047363281 C -2210.272216796875 26.79366493225098 -2216.6455078125 31.60773277282715 -2224.76416015625 32.01300048828125 C -2225.130615234375 32.03129577636719 -2225.494873046875 32.04030609130859 -2225.85595703125 32.04030990600586 C -2233.697265625 32.04040908813477 -2240.11865234375 27.79142951965332 -2240.424072265625 22.22639846801758 C -2240.744384765625 16.40609931945801 -2234.251953125 11.34989833831787 -2225.92333984375 10.93409824371338 C -2225.556396484375 10.91574096679688 -2225.191650390625 10.90670871734619 -2224.830078125 10.90670871734619 C -2224.14892578125 10.90670871734619 -2223.478271484375 10.93876647949219 -2222.82177734375 11.00092124938965 L -2222.82177734375 -24.60100173950195 C -2222.893798828125 -24.660400390625 -2222.939697265625 -24.75021171569824 -2222.939697265625 -24.85080146789551 C -2222.939697265625 -31.56030082702637 -2217.500244140625 -36.99990081787109 -2210.790771484375 -36.99990081787109 L -2177.7021484375 -36.99990081787109 C -2172.1875 -36.99990081787109 -2167.531005859375 -33.32564544677734 -2166.04736328125 -28.29160118103027 C -2165.651611328125 -27.23426818847656 -2165.43505859375 -26.08938980102539 -2165.43505859375 -24.89400100708008 L -2165.43505859375 20.00069808959961 C -2165.43505859375 21.23465347290039 -2165.665771484375 22.41518783569336 -2166.086181640625 23.50075340270996 C -2167.041259765625 28.52019882202148 -2173.01953125 32.60068893432617 -2180.465087890625 32.97239685058594 C -2180.831787109375 32.99069976806641 -2181.196044921875 32.99971008300781 -2181.556884765625 32.99971008300781 Z" stroke="#bebebe" fill="#bebebe"/>
    </g>
  </g>
</svg>
